<svg width="294" height="294" viewBox="0 0 294 294" fill="none" xmlns="http://www.w3.org/2000/svg">
<g filter="url(#filter0_d_17_28)">
<path fill-rule="evenodd" clip-rule="evenodd" d="M246.584 206.653C226.005 233.115 193.863 250.14 157.744 250.14C95.626 250.14 45.2692 199.784 45.2692 137.665C45.2692 98.3186 65.4732 63.6907 96.0727 43.5903C57.542 62.4047 31 101.972 31 147.738C31 211.71 82.8599 263.57 146.832 263.57C189.293 263.57 226.418 240.724 246.584 206.653Z" fill="#BDA374"/>
<path fill-rule="evenodd" clip-rule="evenodd" d="M205.645 233.126C240.282 215.447 264 179.431 264 137.874C264 78.8493 216.151 31 157.125 31C118.752 31 85.1027 51.2235 66.2534 81.5937C85.3254 58.2138 114.363 43.2843 146.888 43.2843C204.33 43.2843 250.896 89.8503 250.896 147.292C250.896 182.931 232.971 214.384 205.645 233.126Z" fill="#BDA374"/>
<path d="M79.2102 192V82.9091H92.4205V137.028H93.6989L142.705 82.9091H159.963L114.153 132.128L159.963 192H143.983L106.057 141.29L92.4205 156.631V192H79.2102Z" fill="#BFA577"/>
<path d="M185.25 203.25C174.45 203.25 164.85 201 156.45 196.5C148.05 192 141.5 185.65 136.8 177.45C132.1 169.15 129.75 159.55 129.75 148.65C129.75 137.75 132.1 128.15 136.8 119.85C141.5 111.55 148.05 105.15 156.45 100.65C164.85 96.15 174.45 93.9 185.25 93.9C199.65 93.9 211.7 97.55 221.4 104.85V119.55C212.7 111.85 201.1 108 186.6 108C178.5 108 171.3 109.65 165 112.95C158.8 116.25 153.95 121 150.45 127.2C146.95 133.3 145.2 140.45 145.2 148.65C145.2 156.85 146.95 164.05 150.45 170.25C154.05 176.45 158.95 181.2 165.15 184.5C171.45 187.8 178.6 189.45 186.6 189.45C194 189.45 200.6 188.5 206.4 186.6C212.3 184.6 217.75 181.45 222.75 177.15V192C213.75 199.5 201.25 203.25 185.25 203.25Z" fill="#BFA577"/>
</g>
<defs>
<filter id="filter0_d_17_28" x="-4" y="0" width="302" height="302" filterUnits="userSpaceOnUse" color-interpolation-filters="sRGB">
<feFlood flood-opacity="0" result="BackgroundImageFix"/>
<feColorMatrix in="SourceAlpha" type="matrix" values="0 0 0 0 0 0 0 0 0 0 0 0 0 0 0 0 0 0 127 0" result="hardAlpha"/>
<feOffset dy="4"/>
<feGaussianBlur stdDeviation="2"/>
<feComposite in2="hardAlpha" operator="out"/>
<feColorMatrix type="matrix" values="0 0 0 0 0 0 0 0 0 0 0 0 0 0 0 0 0 0 0.25 0"/>
<feBlend mode="normal" in2="BackgroundImageFix" result="effect1_dropShadow_17_28"/>
<feBlend mode="normal" in="SourceGraphic" in2="effect1_dropShadow_17_28" result="shape"/>
</filter>
</defs>
</svg>
